<mxfile host="app.diagrams.net" modified="2021-02-08T12:45:17.426Z" agent="5.0 (Macintosh; Intel Mac OS X 10_15_7) AppleWebKit/537.36 (KHTML, like Gecko) Chrome/88.0.4324.96 Safari/537.36" etag="XvwEr3moQOiFIf2VIRmu" version="14.2.9" type="github">
  <diagram id="Qkye7AKlpqOIxZT3r_0r" name="Page-1">
    <mxGraphModel dx="2222" dy="586" grid="1" gridSize="10" guides="1" tooltips="1" connect="1" arrows="1" fold="1" page="1" pageScale="1" pageWidth="827" pageHeight="1169" math="0" shadow="0">
      <root>
        <mxCell id="0" />
        <mxCell id="1" parent="0" />
        <mxCell id="CJKa5TdxEMTpn0F3WpRk-16" value="" style="verticalLabelPosition=bottom;verticalAlign=top;html=1;shadow=0;dashed=0;strokeWidth=1;shape=mxgraph.android.tab2;strokeColor=#c0c0c0;direction=north;fillColor=#FFFFFF;" vertex="1" parent="1">
          <mxGeometry x="-480" y="810" width="740" height="470" as="geometry" />
        </mxCell>
        <mxCell id="CJKa5TdxEMTpn0F3WpRk-19" value="" style="verticalLabelPosition=bottom;verticalAlign=top;html=1;shadow=0;dashed=0;strokeWidth=1;strokeColor=none;shape=rect;fillColor=#FFF2CC;" vertex="1" parent="1">
          <mxGeometry x="-460" y="830" width="700" height="430" as="geometry" />
        </mxCell>
        <mxCell id="CJKa5TdxEMTpn0F3WpRk-3" style="edgeStyle=orthogonalEdgeStyle;rounded=0;orthogonalLoop=1;jettySize=auto;html=1;exitX=1;exitY=0.5;exitDx=0;exitDy=0;entryX=0.011;entryY=0.529;entryDx=0;entryDy=0;entryPerimeter=0;" edge="1" parent="1" target="CJKa5TdxEMTpn0F3WpRk-1">
          <mxGeometry relative="1" as="geometry">
            <mxPoint x="220" y="1045.4999999999998" as="sourcePoint" />
          </mxGeometry>
        </mxCell>
        <mxCell id="YGHudtXg5oLbGy2z0bL_-9" value="&lt;span&gt;业务术语：&lt;/span&gt;&lt;span&gt;用户，&lt;/span&gt;&lt;span&gt;角色，&lt;/span&gt;&lt;span&gt;功能标签，&lt;/span&gt;&lt;span&gt;渠道&lt;br&gt;用户:&amp;nbsp; &amp;nbsp;分b端c端,B端用户分品牌商用户,店主用户等等&lt;br&gt;角色:&amp;nbsp; &amp;nbsp;店主用户拥有达人,店主角色&lt;br&gt;标签:&amp;nbsp; &amp;nbsp;比如推广员可以推广商品&amp;nbsp; 标签预期设计成原子标签,无互斥&lt;br&gt;渠道:&amp;nbsp; &amp;nbsp;用户拥有快手,视频号,kk等渠道多个来源,&lt;/span&gt;每一种角色只能绑定一个渠道来源&lt;span&gt;&lt;br&gt;&lt;br&gt;一个用户可以拥有多个角色和功能标签，则拥有其组成的所有功能&lt;br&gt;&lt;/span&gt;" style="html=1;dashed=0;whitespace=wrap;align=left;" parent="1" vertex="1">
          <mxGeometry x="500" y="489" width="480" height="110" as="geometry" />
        </mxCell>
        <mxCell id="YGHudtXg5oLbGy2z0bL_-10" value="角色" style="html=1;dashed=0;whitespace=wrap;fillColor=#67AB9F;" parent="1" vertex="1">
          <mxGeometry x="190" y="80" width="80" height="60" as="geometry" />
        </mxCell>
        <mxCell id="YGHudtXg5oLbGy2z0bL_-11" value="功能标签用户" style="html=1;dashed=0;whitespace=wrap;fillColor=#FFFFCC;" parent="1" vertex="1">
          <mxGeometry x="-413" y="105" width="80" height="30" as="geometry" />
        </mxCell>
        <mxCell id="YGHudtXg5oLbGy2z0bL_-12" value="品牌商角色" style="html=1;dashed=0;whitespace=wrap;fillColor=#67AB9F;" parent="1" vertex="1">
          <mxGeometry x="190" y="220" width="80" height="30" as="geometry" />
        </mxCell>
        <mxCell id="YGHudtXg5oLbGy2z0bL_-13" value="店主角色" style="html=1;dashed=0;whitespace=wrap;fillColor=#67AB9F;" parent="1" vertex="1">
          <mxGeometry x="190" y="260" width="80" height="30" as="geometry" />
        </mxCell>
        <mxCell id="YGHudtXg5oLbGy2z0bL_-14" value="达人角色" style="html=1;dashed=0;whitespace=wrap;fillColor=#67AB9F;" parent="1" vertex="1">
          <mxGeometry x="190" y="299" width="80" height="30" as="geometry" />
        </mxCell>
        <mxCell id="YGHudtXg5oLbGy2z0bL_-15" value="mcn角色" style="html=1;dashed=0;whitespace=wrap;fillColor=#67AB9F;" parent="1" vertex="1">
          <mxGeometry x="190" y="339" width="80" height="30" as="geometry" />
        </mxCell>
        <mxCell id="YGHudtXg5oLbGy2z0bL_-16" value="mcn销售角色" style="html=1;dashed=0;whitespace=wrap;fillColor=#67AB9F;" parent="1" vertex="1">
          <mxGeometry x="190" y="380" width="80" height="30" as="geometry" />
        </mxCell>
        <mxCell id="YGHudtXg5oLbGy2z0bL_-17" value="团员角色" style="html=1;dashed=0;whitespace=wrap;fillColor=#67AB9F;" parent="1" vertex="1">
          <mxGeometry x="190" y="420" width="80" height="30" as="geometry" />
        </mxCell>
        <mxCell id="YGHudtXg5oLbGy2z0bL_-18" value="团长角色" style="html=1;dashed=0;whitespace=wrap;fillColor=#67AB9F;" parent="1" vertex="1">
          <mxGeometry x="190" y="459" width="80" height="30" as="geometry" />
        </mxCell>
        <mxCell id="YGHudtXg5oLbGy2z0bL_-104" style="edgeStyle=orthogonalEdgeStyle;rounded=0;orthogonalLoop=1;jettySize=auto;html=1;exitX=1;exitY=0.5;exitDx=0;exitDy=0;strokeColor=#000000;fillColor=#7AFFAB;" parent="1" source="YGHudtXg5oLbGy2z0bL_-20" target="YGHudtXg5oLbGy2z0bL_-36" edge="1">
          <mxGeometry relative="1" as="geometry" />
        </mxCell>
        <mxCell id="YGHudtXg5oLbGy2z0bL_-20" value="分销代理商" style="html=1;dashed=0;whitespace=wrap;fillColor=#FFFFCC;" parent="1" vertex="1">
          <mxGeometry x="-413" y="170" width="80" height="30" as="geometry" />
        </mxCell>
        <mxCell id="YGHudtXg5oLbGy2z0bL_-24" style="edgeStyle=orthogonalEdgeStyle;rounded=0;orthogonalLoop=1;jettySize=auto;html=1;exitX=1;exitY=0.5;exitDx=0;exitDy=0;entryX=0.05;entryY=0.333;entryDx=0;entryDy=0;entryPerimeter=0;" parent="1" source="YGHudtXg5oLbGy2z0bL_-22" target="YGHudtXg5oLbGy2z0bL_-27" edge="1">
          <mxGeometry relative="1" as="geometry">
            <mxPoint x="30" y="324" as="targetPoint" />
          </mxGeometry>
        </mxCell>
        <mxCell id="YGHudtXg5oLbGy2z0bL_-28" value="邀请" style="edgeLabel;html=1;align=center;verticalAlign=middle;resizable=0;points=[];" parent="YGHudtXg5oLbGy2z0bL_-24" vertex="1" connectable="0">
          <mxGeometry x="0.1" y="1" relative="1" as="geometry">
            <mxPoint as="offset" />
          </mxGeometry>
        </mxCell>
        <mxCell id="YGHudtXg5oLbGy2z0bL_-22" value="(渠道商)代言人" style="html=1;dashed=0;whitespace=wrap;fillColor=#FFFFCC;" parent="1" vertex="1">
          <mxGeometry x="-240" y="290" width="80" height="30" as="geometry" />
        </mxCell>
        <mxCell id="YGHudtXg5oLbGy2z0bL_-29" style="edgeStyle=orthogonalEdgeStyle;rounded=0;orthogonalLoop=1;jettySize=auto;html=1;exitX=1;exitY=0.5;exitDx=0;exitDy=0;entryX=0;entryY=0.5;entryDx=0;entryDy=0;" parent="1" source="YGHudtXg5oLbGy2z0bL_-27" target="YGHudtXg5oLbGy2z0bL_-13" edge="1">
          <mxGeometry relative="1" as="geometry" />
        </mxCell>
        <mxCell id="YGHudtXg5oLbGy2z0bL_-30" style="edgeStyle=orthogonalEdgeStyle;rounded=0;orthogonalLoop=1;jettySize=auto;html=1;exitX=1;exitY=0.5;exitDx=0;exitDy=0;" parent="1" source="YGHudtXg5oLbGy2z0bL_-27" target="YGHudtXg5oLbGy2z0bL_-14" edge="1">
          <mxGeometry relative="1" as="geometry" />
        </mxCell>
        <mxCell id="YGHudtXg5oLbGy2z0bL_-109" style="edgeStyle=orthogonalEdgeStyle;rounded=0;orthogonalLoop=1;jettySize=auto;html=1;exitX=0;exitY=0.5;exitDx=0;exitDy=0;entryX=1;entryY=0.75;entryDx=0;entryDy=0;strokeColor=#97D077;fillColor=#7AFFAB;" parent="1" source="YGHudtXg5oLbGy2z0bL_-27" target="YGHudtXg5oLbGy2z0bL_-42" edge="1">
          <mxGeometry relative="1" as="geometry">
            <Array as="points">
              <mxPoint y="314" />
              <mxPoint y="523" />
            </Array>
          </mxGeometry>
        </mxCell>
        <mxCell id="YGHudtXg5oLbGy2z0bL_-27" value="店主&lt;br&gt;用户" style="shape=ellipse;html=1;dashed=0;whitespace=wrap;aspect=fixed;perimeter=ellipsePerimeter;fillColor=#E6D0DE;" parent="1" vertex="1">
          <mxGeometry x="30" y="284" width="60" height="60" as="geometry" />
        </mxCell>
        <mxCell id="YGHudtXg5oLbGy2z0bL_-105" style="edgeStyle=orthogonalEdgeStyle;rounded=0;orthogonalLoop=1;jettySize=auto;html=1;exitX=1;exitY=0.5;exitDx=0;exitDy=0;entryX=0.5;entryY=0;entryDx=0;entryDy=0;strokeColor=#000000;fillColor=#7AFFAB;" parent="1" source="YGHudtXg5oLbGy2z0bL_-36" target="YGHudtXg5oLbGy2z0bL_-58" edge="1">
          <mxGeometry relative="1" as="geometry" />
        </mxCell>
        <mxCell id="YGHudtXg5oLbGy2z0bL_-36" value="分销销售员" style="html=1;dashed=0;whitespace=wrap;fillColor=#FFFFCC;" parent="1" vertex="1">
          <mxGeometry x="-240" y="170" width="80" height="30" as="geometry" />
        </mxCell>
        <mxCell id="YGHudtXg5oLbGy2z0bL_-42" value="推广员" style="html=1;dashed=0;whitespace=wrap;fillColor=#FFFFCC;" parent="1" vertex="1">
          <mxGeometry x="-150" y="500" width="80" height="30" as="geometry" />
        </mxCell>
        <mxCell id="YGHudtXg5oLbGy2z0bL_-70" style="edgeStyle=orthogonalEdgeStyle;rounded=0;orthogonalLoop=1;jettySize=auto;html=1;exitX=1;exitY=0.5;exitDx=0;exitDy=0;entryX=0;entryY=0.5;entryDx=0;entryDy=0;fillColor=#7AFFAB;" parent="1" source="YGHudtXg5oLbGy2z0bL_-58" target="YGHudtXg5oLbGy2z0bL_-12" edge="1">
          <mxGeometry relative="1" as="geometry" />
        </mxCell>
        <mxCell id="YGHudtXg5oLbGy2z0bL_-118" style="edgeStyle=orthogonalEdgeStyle;rounded=0;orthogonalLoop=1;jettySize=auto;html=1;exitX=0;exitY=0.5;exitDx=0;exitDy=0;entryX=1;entryY=0.25;entryDx=0;entryDy=0;strokeColor=#97D077;fillColor=#7AFFAB;" parent="1" source="YGHudtXg5oLbGy2z0bL_-58" target="YGHudtXg5oLbGy2z0bL_-87" edge="1">
          <mxGeometry relative="1" as="geometry" />
        </mxCell>
        <mxCell id="YGHudtXg5oLbGy2z0bL_-58" value="品牌商&lt;br&gt;用户" style="shape=ellipse;html=1;dashed=0;whitespace=wrap;aspect=fixed;perimeter=ellipsePerimeter;fillColor=#E6D0DE;" parent="1" vertex="1">
          <mxGeometry x="30" y="205" width="60" height="60" as="geometry" />
        </mxCell>
        <mxCell id="YGHudtXg5oLbGy2z0bL_-71" style="edgeStyle=orthogonalEdgeStyle;rounded=0;orthogonalLoop=1;jettySize=auto;html=1;exitX=1;exitY=0.5;exitDx=0;exitDy=0;entryX=0;entryY=0.75;entryDx=0;entryDy=0;fillColor=#7AFFAB;" parent="1" source="YGHudtXg5oLbGy2z0bL_-59" target="YGHudtXg5oLbGy2z0bL_-14" edge="1">
          <mxGeometry relative="1" as="geometry" />
        </mxCell>
        <mxCell id="YGHudtXg5oLbGy2z0bL_-59" value="达人&lt;br&gt;用户" style="shape=ellipse;html=1;dashed=0;whitespace=wrap;aspect=fixed;perimeter=ellipsePerimeter;fillColor=#E6D0DE;" parent="1" vertex="1">
          <mxGeometry x="30" y="365" width="60" height="60" as="geometry" />
        </mxCell>
        <mxCell id="YGHudtXg5oLbGy2z0bL_-74" style="edgeStyle=orthogonalEdgeStyle;rounded=0;orthogonalLoop=1;jettySize=auto;html=1;exitX=1;exitY=0.5;exitDx=0;exitDy=0;entryX=1;entryY=0.25;entryDx=0;entryDy=0;strokeColor=#000000;fillColor=#7AFFAB;" parent="1" source="YGHudtXg5oLbGy2z0bL_-60" target="YGHudtXg5oLbGy2z0bL_-14" edge="1">
          <mxGeometry relative="1" as="geometry">
            <Array as="points">
              <mxPoint x="90" y="500" />
              <mxPoint x="310" y="500" />
              <mxPoint x="310" y="306" />
            </Array>
          </mxGeometry>
        </mxCell>
        <mxCell id="YGHudtXg5oLbGy2z0bL_-77" style="edgeStyle=orthogonalEdgeStyle;rounded=0;orthogonalLoop=1;jettySize=auto;html=1;exitX=1;exitY=0.5;exitDx=0;exitDy=0;strokeColor=#000000;fillColor=#7AFFAB;entryX=1;entryY=0.5;entryDx=0;entryDy=0;" parent="1" source="YGHudtXg5oLbGy2z0bL_-60" target="YGHudtXg5oLbGy2z0bL_-15" edge="1">
          <mxGeometry relative="1" as="geometry">
            <mxPoint x="320" y="400" as="targetPoint" />
            <Array as="points">
              <mxPoint x="90" y="500" />
              <mxPoint x="310" y="500" />
              <mxPoint x="310" y="354" />
            </Array>
          </mxGeometry>
        </mxCell>
        <mxCell id="YGHudtXg5oLbGy2z0bL_-78" style="edgeStyle=orthogonalEdgeStyle;rounded=0;orthogonalLoop=1;jettySize=auto;html=1;exitX=1;exitY=0.5;exitDx=0;exitDy=0;entryX=1;entryY=0.5;entryDx=0;entryDy=0;strokeColor=#000000;fillColor=#7AFFAB;" parent="1" source="YGHudtXg5oLbGy2z0bL_-60" target="YGHudtXg5oLbGy2z0bL_-13" edge="1">
          <mxGeometry relative="1" as="geometry">
            <Array as="points">
              <mxPoint x="90" y="500" />
              <mxPoint x="310" y="500" />
              <mxPoint x="310" y="275" />
            </Array>
          </mxGeometry>
        </mxCell>
        <mxCell id="7XowSsbJZNvmo9IsEqXJ-1" style="edgeStyle=orthogonalEdgeStyle;rounded=0;orthogonalLoop=1;jettySize=auto;html=1;exitX=0.5;exitY=1;exitDx=0;exitDy=0;entryX=0.5;entryY=0;entryDx=0;entryDy=0;" parent="1" source="YGHudtXg5oLbGy2z0bL_-60" target="YGHudtXg5oLbGy2z0bL_-61" edge="1">
          <mxGeometry relative="1" as="geometry" />
        </mxCell>
        <mxCell id="YGHudtXg5oLbGy2z0bL_-60" value="mcn&lt;br&gt;用户" style="shape=ellipse;html=1;dashed=0;whitespace=wrap;aspect=fixed;perimeter=ellipsePerimeter;fillColor=#E6D0DE;" parent="1" vertex="1">
          <mxGeometry x="30" y="450" width="60" height="60" as="geometry" />
        </mxCell>
        <mxCell id="YGHudtXg5oLbGy2z0bL_-76" style="edgeStyle=orthogonalEdgeStyle;rounded=0;orthogonalLoop=1;jettySize=auto;html=1;exitX=1;exitY=0.5;exitDx=0;exitDy=0;entryX=1;entryY=0.25;entryDx=0;entryDy=0;strokeColor=#FF33FF;fillColor=#7AFFAB;" parent="1" source="YGHudtXg5oLbGy2z0bL_-61" target="YGHudtXg5oLbGy2z0bL_-16" edge="1">
          <mxGeometry relative="1" as="geometry">
            <Array as="points">
              <mxPoint x="340" y="570" />
              <mxPoint x="340" y="388" />
            </Array>
          </mxGeometry>
        </mxCell>
        <mxCell id="YGHudtXg5oLbGy2z0bL_-61" value="mcn销售&lt;br&gt;用户" style="shape=ellipse;html=1;dashed=0;whitespace=wrap;aspect=fixed;perimeter=ellipsePerimeter;fillColor=#E6D0DE;" parent="1" vertex="1">
          <mxGeometry x="30" y="540" width="60" height="60" as="geometry" />
        </mxCell>
        <mxCell id="YGHudtXg5oLbGy2z0bL_-81" style="edgeStyle=orthogonalEdgeStyle;rounded=0;orthogonalLoop=1;jettySize=auto;html=1;exitX=1;exitY=0.5;exitDx=0;exitDy=0;entryX=1;entryY=0.5;entryDx=0;entryDy=0;strokeColor=#FF3333;fillColor=#7AFFAB;" parent="1" source="YGHudtXg5oLbGy2z0bL_-62" target="YGHudtXg5oLbGy2z0bL_-18" edge="1">
          <mxGeometry relative="1" as="geometry">
            <Array as="points">
              <mxPoint x="370" y="660" />
              <mxPoint x="370" y="474" />
            </Array>
          </mxGeometry>
        </mxCell>
        <mxCell id="7XowSsbJZNvmo9IsEqXJ-2" style="edgeStyle=orthogonalEdgeStyle;rounded=0;orthogonalLoop=1;jettySize=auto;html=1;exitX=0.5;exitY=1;exitDx=0;exitDy=0;" parent="1" source="YGHudtXg5oLbGy2z0bL_-62" target="YGHudtXg5oLbGy2z0bL_-63" edge="1">
          <mxGeometry relative="1" as="geometry" />
        </mxCell>
        <mxCell id="YGHudtXg5oLbGy2z0bL_-62" value="团长用户" style="shape=ellipse;html=1;dashed=0;whitespace=wrap;aspect=fixed;perimeter=ellipsePerimeter;fillColor=#E6D0DE;" parent="1" vertex="1">
          <mxGeometry x="30" y="630" width="60" height="60" as="geometry" />
        </mxCell>
        <mxCell id="YGHudtXg5oLbGy2z0bL_-82" style="edgeStyle=orthogonalEdgeStyle;rounded=0;orthogonalLoop=1;jettySize=auto;html=1;exitX=1;exitY=0.5;exitDx=0;exitDy=0;entryX=1;entryY=0.25;entryDx=0;entryDy=0;strokeColor=#990099;fillColor=#7AFFAB;" parent="1" source="YGHudtXg5oLbGy2z0bL_-63" target="YGHudtXg5oLbGy2z0bL_-17" edge="1">
          <mxGeometry relative="1" as="geometry">
            <Array as="points">
              <mxPoint x="450" y="750" />
              <mxPoint x="450" y="428" />
            </Array>
          </mxGeometry>
        </mxCell>
        <mxCell id="YGHudtXg5oLbGy2z0bL_-63" value="团员用户" style="shape=ellipse;html=1;dashed=0;whitespace=wrap;aspect=fixed;perimeter=ellipsePerimeter;fillColor=#E6D0DE;" parent="1" vertex="1">
          <mxGeometry x="30" y="720" width="60" height="60" as="geometry" />
        </mxCell>
        <mxCell id="YGHudtXg5oLbGy2z0bL_-64" value="用户" style="shape=ellipse;html=1;dashed=0;whitespace=wrap;aspect=fixed;perimeter=ellipsePerimeter;fillColor=#E6D0DE;" parent="1" vertex="1">
          <mxGeometry x="30" y="75" width="60" height="60" as="geometry" />
        </mxCell>
        <mxCell id="YGHudtXg5oLbGy2z0bL_-80" value="&lt;span style=&quot;color: rgb(23 , 43 , 77) ; font-family: , , &amp;#34;segoe ui&amp;#34; , &amp;#34;roboto&amp;#34; , &amp;#34;oxygen&amp;#34; , &amp;#34;ubuntu&amp;#34; , &amp;#34;fira sans&amp;#34; , &amp;#34;droid sans&amp;#34; , &amp;#34;helvetica neue&amp;#34; , sans-serif ; font-size: 14px ; text-align: left ; background-color: rgb(255 , 255 , 255)&quot;&gt;推广mcn机构的商品&lt;/span&gt;" style="html=1;dashed=0;whitespace=wrap;fillColor=#FFF2CC;" parent="1" vertex="1">
          <mxGeometry x="517" y="385" width="310" height="20" as="geometry" />
        </mxCell>
        <mxCell id="YGHudtXg5oLbGy2z0bL_-83" value="经销商" style="html=1;dashed=0;whitespace=wrap;fillColor=#FFFFCC;" parent="1" vertex="1">
          <mxGeometry x="-410" y="489" width="80" height="30" as="geometry" />
        </mxCell>
        <mxCell id="YGHudtXg5oLbGy2z0bL_-94" style="edgeStyle=orthogonalEdgeStyle;rounded=0;orthogonalLoop=1;jettySize=auto;html=1;exitX=1;exitY=0.5;exitDx=0;exitDy=0;entryX=0;entryY=0.5;entryDx=0;entryDy=0;strokeColor=#000000;fillColor=#7AFFAB;" parent="1" source="YGHudtXg5oLbGy2z0bL_-85" target="YGHudtXg5oLbGy2z0bL_-88" edge="1">
          <mxGeometry relative="1" as="geometry" />
        </mxCell>
        <mxCell id="YGHudtXg5oLbGy2z0bL_-85" value="战队队长" style="html=1;dashed=0;whitespace=wrap;fillColor=#FFFFCC;" parent="1" vertex="1">
          <mxGeometry x="-410" y="570" width="80" height="30" as="geometry" />
        </mxCell>
        <mxCell id="YGHudtXg5oLbGy2z0bL_-87" value="分销商" style="html=1;dashed=0;whitespace=wrap;fillColor=#FFFFCC;" parent="1" vertex="1">
          <mxGeometry x="-150" y="450" width="80" height="30" as="geometry" />
        </mxCell>
        <mxCell id="YGHudtXg5oLbGy2z0bL_-88" value="战队队员" style="html=1;dashed=0;whitespace=wrap;fillColor=#FFFFCC;" parent="1" vertex="1">
          <mxGeometry x="-240" y="570" width="80" height="30" as="geometry" />
        </mxCell>
        <mxCell id="YGHudtXg5oLbGy2z0bL_-147" style="edgeStyle=orthogonalEdgeStyle;rounded=0;orthogonalLoop=1;jettySize=auto;html=1;exitX=1;exitY=0.25;exitDx=0;exitDy=0;strokeColor=#000000;fillColor=#7AFFAB;" parent="1" source="YGHudtXg5oLbGy2z0bL_-92" edge="1">
          <mxGeometry relative="1" as="geometry">
            <mxPoint x="-60" y="300" as="targetPoint" />
            <Array as="points">
              <mxPoint x="-160" y="245" />
              <mxPoint x="-60" y="245" />
            </Array>
          </mxGeometry>
        </mxCell>
        <mxCell id="YGHudtXg5oLbGy2z0bL_-92" value="代理商销售员" style="html=1;dashed=0;whitespace=wrap;fillColor=#FFFFCC;" parent="1" vertex="1">
          <mxGeometry x="-240" y="230" width="80" height="30" as="geometry" />
        </mxCell>
        <mxCell id="YGHudtXg5oLbGy2z0bL_-93" value="视频号代言人" style="html=1;dashed=0;whitespace=wrap;fillColor=#FFFFCC;" parent="1" vertex="1">
          <mxGeometry x="-240" y="320" width="80" height="30" as="geometry" />
        </mxCell>
        <mxCell id="YGHudtXg5oLbGy2z0bL_-107" style="edgeStyle=orthogonalEdgeStyle;rounded=0;orthogonalLoop=1;jettySize=auto;html=1;exitX=1;exitY=0.5;exitDx=0;exitDy=0;entryX=0;entryY=0.5;entryDx=0;entryDy=0;strokeColor=#000000;fillColor=#7AFFAB;" parent="1" source="YGHudtXg5oLbGy2z0bL_-97" target="YGHudtXg5oLbGy2z0bL_-22" edge="1">
          <mxGeometry relative="1" as="geometry" />
        </mxCell>
        <mxCell id="YGHudtXg5oLbGy2z0bL_-97" value="渠道商" style="html=1;dashed=0;whitespace=wrap;fillColor=#FFFFCC;" parent="1" vertex="1">
          <mxGeometry x="-410" y="290" width="80" height="30" as="geometry" />
        </mxCell>
        <mxCell id="YGHudtXg5oLbGy2z0bL_-106" style="edgeStyle=orthogonalEdgeStyle;rounded=0;orthogonalLoop=1;jettySize=auto;html=1;exitX=1;exitY=0.5;exitDx=0;exitDy=0;entryX=0;entryY=0.5;entryDx=0;entryDy=0;strokeColor=#000000;fillColor=#7AFFAB;" parent="1" source="YGHudtXg5oLbGy2z0bL_-98" target="YGHudtXg5oLbGy2z0bL_-92" edge="1">
          <mxGeometry relative="1" as="geometry" />
        </mxCell>
        <mxCell id="YGHudtXg5oLbGy2z0bL_-98" value="代理商" style="html=1;dashed=0;whitespace=wrap;fillColor=#FFFFCC;" parent="1" vertex="1">
          <mxGeometry x="-410" y="229" width="80" height="30" as="geometry" />
        </mxCell>
        <mxCell id="YGHudtXg5oLbGy2z0bL_-108" style="edgeStyle=orthogonalEdgeStyle;rounded=0;orthogonalLoop=1;jettySize=auto;html=1;exitX=1;exitY=0.25;exitDx=0;exitDy=0;entryX=0;entryY=0.25;entryDx=0;entryDy=0;strokeColor=#000000;fillColor=#7AFFAB;" parent="1" source="YGHudtXg5oLbGy2z0bL_-99" target="YGHudtXg5oLbGy2z0bL_-93" edge="1">
          <mxGeometry relative="1" as="geometry" />
        </mxCell>
        <mxCell id="YGHudtXg5oLbGy2z0bL_-99" value="视频号渠道商" style="html=1;dashed=0;whitespace=wrap;fillColor=#FFFFCC;" parent="1" vertex="1">
          <mxGeometry x="-410" y="320" width="80" height="30" as="geometry" />
        </mxCell>
        <mxCell id="YGHudtXg5oLbGy2z0bL_-100" value="" style="html=1;dashed=0;whitespace=wrap;shape=partialRectangle;right=0;left=0;fillColor=#FFFFFF;" parent="1" vertex="1">
          <mxGeometry x="-413" y="135" width="1163" height="10" as="geometry" />
        </mxCell>
        <mxCell id="YGHudtXg5oLbGy2z0bL_-111" style="edgeStyle=orthogonalEdgeStyle;rounded=0;orthogonalLoop=1;jettySize=auto;html=1;exitX=1;exitY=0.5;exitDx=0;exitDy=0;entryX=0;entryY=0.5;entryDx=0;entryDy=0;strokeColor=#000000;fillColor=#7AFFAB;" parent="1" source="YGHudtXg5oLbGy2z0bL_-110" target="YGHudtXg5oLbGy2z0bL_-98" edge="1">
          <mxGeometry relative="1" as="geometry" />
        </mxCell>
        <mxCell id="YGHudtXg5oLbGy2z0bL_-112" style="edgeStyle=orthogonalEdgeStyle;rounded=0;orthogonalLoop=1;jettySize=auto;html=1;exitX=1;exitY=0.5;exitDx=0;exitDy=0;entryX=0;entryY=0.5;entryDx=0;entryDy=0;strokeColor=#000000;fillColor=#7AFFAB;" parent="1" source="YGHudtXg5oLbGy2z0bL_-110" target="YGHudtXg5oLbGy2z0bL_-97" edge="1">
          <mxGeometry relative="1" as="geometry" />
        </mxCell>
        <mxCell id="YGHudtXg5oLbGy2z0bL_-113" style="edgeStyle=orthogonalEdgeStyle;rounded=0;orthogonalLoop=1;jettySize=auto;html=1;exitX=1;exitY=0.5;exitDx=0;exitDy=0;entryX=0;entryY=0.5;entryDx=0;entryDy=0;strokeColor=#000000;fillColor=#7AFFAB;" parent="1" source="YGHudtXg5oLbGy2z0bL_-110" target="YGHudtXg5oLbGy2z0bL_-99" edge="1">
          <mxGeometry relative="1" as="geometry" />
        </mxCell>
        <mxCell id="YGHudtXg5oLbGy2z0bL_-114" style="edgeStyle=orthogonalEdgeStyle;rounded=0;orthogonalLoop=1;jettySize=auto;html=1;exitX=1;exitY=0.5;exitDx=0;exitDy=0;entryX=0;entryY=0.75;entryDx=0;entryDy=0;strokeColor=#000000;fillColor=#7AFFAB;" parent="1" source="YGHudtXg5oLbGy2z0bL_-110" target="YGHudtXg5oLbGy2z0bL_-83" edge="1">
          <mxGeometry relative="1" as="geometry" />
        </mxCell>
        <mxCell id="YGHudtXg5oLbGy2z0bL_-121" style="edgeStyle=orthogonalEdgeStyle;rounded=0;orthogonalLoop=1;jettySize=auto;html=1;exitX=1;exitY=0.5;exitDx=0;exitDy=0;entryX=0;entryY=0.5;entryDx=0;entryDy=0;strokeColor=#000000;fillColor=#7AFFAB;" parent="1" source="YGHudtXg5oLbGy2z0bL_-110" target="YGHudtXg5oLbGy2z0bL_-20" edge="1">
          <mxGeometry relative="1" as="geometry">
            <Array as="points">
              <mxPoint x="-440" y="369" />
              <mxPoint x="-440" y="185" />
            </Array>
          </mxGeometry>
        </mxCell>
        <mxCell id="YGHudtXg5oLbGy2z0bL_-110" value="boss后台" style="ellipse;shape=doubleEllipse;html=1;dashed=0;whitespace=wrap;aspect=fixed;fillColor=#FFFFFF;" parent="1" vertex="1">
          <mxGeometry x="-530" y="339" width="60" height="60" as="geometry" />
        </mxCell>
        <mxCell id="YGHudtXg5oLbGy2z0bL_-116" style="edgeStyle=orthogonalEdgeStyle;rounded=0;orthogonalLoop=1;jettySize=auto;html=1;exitX=1;exitY=0.5;exitDx=0;exitDy=0;entryX=0;entryY=0.5;entryDx=0;entryDy=0;strokeColor=#000000;fillColor=#7AFFAB;" parent="1" source="YGHudtXg5oLbGy2z0bL_-115" target="YGHudtXg5oLbGy2z0bL_-85" edge="1">
          <mxGeometry relative="1" as="geometry" />
        </mxCell>
        <mxCell id="YGHudtXg5oLbGy2z0bL_-115" value="活动" style="ellipse;shape=doubleEllipse;html=1;dashed=0;whitespace=wrap;aspect=fixed;fillColor=#FFFFFF;" parent="1" vertex="1">
          <mxGeometry x="-530" y="555" width="60" height="60" as="geometry" />
        </mxCell>
        <mxCell id="YGHudtXg5oLbGy2z0bL_-123" value="营销" style="html=1;dashed=0;whitespace=wrap;shape=mxgraph.dfd.dataStoreID;align=left;spacingLeft=3;points=[[0,0],[0.5,0],[1,0],[0,0.5],[1,0.5],[0,1],[0.5,1],[1,1]];fillColor=#FFFFFF;" parent="1" vertex="1">
          <mxGeometry x="-520" y="615" width="50" height="25" as="geometry" />
        </mxCell>
        <mxCell id="YGHudtXg5oLbGy2z0bL_-125" value="上传团长商品邀请团员" style="html=1;dashed=0;whitespace=wrap;fillColor=#FFF2CC;" parent="1" vertex="1">
          <mxGeometry x="517" y="459" width="310" height="20" as="geometry" />
        </mxCell>
        <mxCell id="YGHudtXg5oLbGy2z0bL_-126" value="推广团长商品" style="html=1;dashed=0;whitespace=wrap;fillColor=#FFF2CC;" parent="1" vertex="1">
          <mxGeometry x="517" y="420" width="310" height="20" as="geometry" />
        </mxCell>
        <mxCell id="YGHudtXg5oLbGy2z0bL_-127" value="上传mcn商品" style="html=1;dashed=0;whitespace=wrap;fillColor=#FFF2CC;" parent="1" vertex="1">
          <mxGeometry x="517" y="339" width="310" height="20" as="geometry" />
        </mxCell>
        <mxCell id="YGHudtXg5oLbGy2z0bL_-128" value="&lt;span style=&quot;color: rgb(23 , 43 , 77) ; font-family: , , &amp;#34;segoe ui&amp;#34; , &amp;#34;roboto&amp;#34; , &amp;#34;oxygen&amp;#34; , &amp;#34;ubuntu&amp;#34; , &amp;#34;fira sans&amp;#34; , &amp;#34;droid sans&amp;#34; , &amp;#34;helvetica neue&amp;#34; , sans-serif ; font-size: 14px ; text-align: left ; background-color: rgb(255 , 255 , 255)&quot;&gt;推广品牌商分销商品&lt;/span&gt;" style="html=1;dashed=0;whitespace=wrap;fillColor=#FFF2CC;" parent="1" vertex="1">
          <mxGeometry x="517" y="299" width="310" height="20" as="geometry" />
        </mxCell>
        <mxCell id="YGHudtXg5oLbGy2z0bL_-129" value="可过期可续费 可上传自营商品" style="html=1;dashed=0;whitespace=wrap;fillColor=#FFF2CC;" parent="1" vertex="1">
          <mxGeometry x="517" y="260" width="310" height="20" as="geometry" />
        </mxCell>
        <mxCell id="YGHudtXg5oLbGy2z0bL_-130" value="可过期可续费 可上传分销商推广商品和达人推广商品" style="html=1;dashed=0;whitespace=wrap;fillColor=#FFF2CC;" parent="1" vertex="1">
          <mxGeometry x="517" y="220" width="310" height="20" as="geometry" />
        </mxCell>
        <mxCell id="YGHudtXg5oLbGy2z0bL_-131" value="备注" style="html=1;dashed=0;whitespace=wrap;fillColor=#FFF2CC;" parent="1" vertex="1">
          <mxGeometry x="430" y="115" width="310" height="20" as="geometry" />
        </mxCell>
        <mxCell id="YGHudtXg5oLbGy2z0bL_-135" style="edgeStyle=orthogonalEdgeStyle;rounded=0;orthogonalLoop=1;jettySize=auto;html=1;exitX=1;exitY=0.5;exitDx=0;exitDy=0;strokeColor=#FF3333;fillColor=#7AFFAB;entryX=1;entryY=0.5;entryDx=0;entryDy=0;" parent="1" source="YGHudtXg5oLbGy2z0bL_-62" target="YGHudtXg5oLbGy2z0bL_-14" edge="1">
          <mxGeometry relative="1" as="geometry">
            <mxPoint x="90" y="646" as="sourcePoint" />
            <mxPoint x="370" y="340" as="targetPoint" />
            <Array as="points">
              <mxPoint x="370" y="660" />
              <mxPoint x="370" y="314" />
            </Array>
          </mxGeometry>
        </mxCell>
        <mxCell id="YGHudtXg5oLbGy2z0bL_-136" value="&lt;font style=&quot;font-size: 6px&quot;&gt;后台设成达人&lt;/font&gt;" style="edgeLabel;html=1;align=center;verticalAlign=middle;resizable=0;points=[];" parent="YGHudtXg5oLbGy2z0bL_-135" vertex="1" connectable="0">
          <mxGeometry x="0.6042" relative="1" as="geometry">
            <mxPoint as="offset" />
          </mxGeometry>
        </mxCell>
        <mxCell id="YGHudtXg5oLbGy2z0bL_-137" style="edgeStyle=orthogonalEdgeStyle;rounded=0;orthogonalLoop=1;jettySize=auto;html=1;entryX=1;entryY=0.75;entryDx=0;entryDy=0;strokeColor=#990099;fillColor=#7AFFAB;" parent="1" target="YGHudtXg5oLbGy2z0bL_-14" edge="1">
          <mxGeometry relative="1" as="geometry">
            <mxPoint x="90" y="750" as="sourcePoint" />
            <mxPoint x="280" y="437.5000000000002" as="targetPoint" />
            <Array as="points">
              <mxPoint x="450" y="750" />
              <mxPoint x="450" y="322" />
              <mxPoint x="270" y="322" />
            </Array>
          </mxGeometry>
        </mxCell>
        <mxCell id="YGHudtXg5oLbGy2z0bL_-139" style="edgeStyle=orthogonalEdgeStyle;rounded=0;orthogonalLoop=1;jettySize=auto;html=1;exitX=0.5;exitY=1;exitDx=0;exitDy=0;entryX=1.016;entryY=0.645;entryDx=0;entryDy=0;entryPerimeter=0;strokeColor=#000000;fillColor=#7AFFAB;" parent="1" source="YGHudtXg5oLbGy2z0bL_-27" target="YGHudtXg5oLbGy2z0bL_-27" edge="1">
          <mxGeometry relative="1" as="geometry">
            <Array as="points">
              <mxPoint x="60" y="350" />
              <mxPoint x="130" y="350" />
              <mxPoint x="130" y="323" />
            </Array>
          </mxGeometry>
        </mxCell>
        <mxCell id="YGHudtXg5oLbGy2z0bL_-140" value="店主邀请" style="edgeLabel;html=1;align=center;verticalAlign=middle;resizable=0;points=[];" parent="YGHudtXg5oLbGy2z0bL_-139" vertex="1" connectable="0">
          <mxGeometry x="-0.3671" y="5" relative="1" as="geometry">
            <mxPoint as="offset" />
          </mxGeometry>
        </mxCell>
        <mxCell id="YGHudtXg5oLbGy2z0bL_-141" value="推广自营商品" style="html=1;dashed=0;whitespace=wrap;fillColor=#FFF2CC;" parent="1" vertex="1">
          <mxGeometry x="-150" y="530" width="80" height="20" as="geometry" />
        </mxCell>
        <mxCell id="YGHudtXg5oLbGy2z0bL_-142" value="&lt;span style=&quot;color: rgb(23 , 43 , 77) ; font-family: , , &amp;#34;segoe ui&amp;#34; , &amp;#34;roboto&amp;#34; , &amp;#34;oxygen&amp;#34; , &amp;#34;ubuntu&amp;#34; , &amp;#34;fira sans&amp;#34; , &amp;#34;droid sans&amp;#34; , &amp;#34;helvetica neue&amp;#34; , sans-serif ; font-size: 14px ; text-align: left ; background-color: rgb(255 , 255 , 255)&quot;&gt;分销品牌商[指定]的商品&lt;/span&gt;" style="html=1;dashed=0;whitespace=wrap;fillColor=#FFF2CC;" parent="1" vertex="1">
          <mxGeometry x="-150" y="479" width="170" height="21" as="geometry" />
        </mxCell>
        <mxCell id="YGHudtXg5oLbGy2z0bL_-143" value="&lt;span style=&quot;color: rgb(23 , 43 , 77) ; font-family: , , &amp;#34;segoe ui&amp;#34; , &amp;#34;roboto&amp;#34; , &amp;#34;oxygen&amp;#34; , &amp;#34;ubuntu&amp;#34; , &amp;#34;fira sans&amp;#34; , &amp;#34;droid sans&amp;#34; , &amp;#34;helvetica neue&amp;#34; , sans-serif ; font-size: 14px ; text-align: left ; background-color: rgb(255 , 255 , 255)&quot;&gt;商品只能推送到经销商的平台&lt;/span&gt;&lt;span style=&quot;color: rgba(0 , 0 , 0 , 0) ; font-family: monospace ; font-size: 0px&quot;&gt;3CmxGraphModel%3E%3Croot%3E%3CmxCell%20id%3D%220%22%2F%3E%3CmxCell%20id%3D%221%22%20parent%3D%220%22%2F%3E%3CmxCell%20id%3D%222%22%20value%3D%22%E6%8E%A8%E5%B9%BF%E8%87%AA%E8%90%A5%E5%95%86%E5%93%81%22%20style%3D%22html%3D1%3Bdashed%3D0%3Bwhitespace%3Dwrap%3BfillColor%3D%23FFF2CC%3B%22%20vertex%3D%221%22%20parent%3D%221%22%3E%3CmxGeometry%20x%3D%22-150%22%20y%3D%22479%22%20width%3D%2280%22%20height%3D%2220%22%20as%3D%22geometry%22%2F%3E%3C%2FmxCell%3E%3C%2Froot%3E%3C%2FmxGraphModel%3E&lt;/span&gt;" style="html=1;dashed=0;whitespace=wrap;fillColor=#FFF2CC;" parent="1" vertex="1">
          <mxGeometry x="-410" y="519" width="220" height="21" as="geometry" />
        </mxCell>
        <mxCell id="YGHudtXg5oLbGy2z0bL_-145" value="&lt;div style=&quot;text-align: left&quot;&gt;&lt;font color=&quot;#172b4d&quot;&gt;&lt;span style=&quot;font-size: 14px ; background-color: rgb(255 , 255 , 255)&quot;&gt;可邀请vip品牌商&lt;/span&gt;&lt;/font&gt;&lt;/div&gt;" style="html=1;dashed=0;whitespace=wrap;fillColor=#FFF2CC;" parent="1" vertex="1">
          <mxGeometry x="-413" y="199" width="143" height="21" as="geometry" />
        </mxCell>
        <mxCell id="YGHudtXg5oLbGy2z0bL_-146" value="&lt;div style=&quot;text-align: left&quot;&gt;&lt;font color=&quot;#172b4d&quot;&gt;&lt;span style=&quot;font-size: 14px ; background-color: rgb(255 , 255 , 255)&quot;&gt;可邀请vip店主&lt;/span&gt;&lt;/font&gt;&lt;/div&gt;" style="html=1;dashed=0;whitespace=wrap;fillColor=#FFF2CC;" parent="1" vertex="1">
          <mxGeometry x="-410" y="260" width="140" height="20" as="geometry" />
        </mxCell>
        <mxCell id="YGHudtXg5oLbGy2z0bL_-150" value="&lt;div&gt;&lt;span&gt;角色入驻互斥说明:[从当前角色看与其他的互斥，因为mcn可以成为达人，达人不可以成为mcn]&lt;/span&gt;&lt;/div&gt;&lt;div&gt;品牌商用户:&amp;nbsp; &lt;b&gt;所有身份互斥&lt;/b&gt;&lt;/div&gt;&lt;div&gt;&lt;span&gt;店主用户: 达人 团员 团长 可以&amp;nbsp; 其他互斥&lt;/span&gt;&lt;/div&gt;&lt;div&gt;mcn用户: &lt;b&gt;所有身份互斥 &lt;/b&gt;并且必须是普通用户&lt;/div&gt;&lt;div&gt;mcn销售用户:&lt;b&gt;所有身份互斥&lt;/b&gt;&lt;/div&gt;&lt;div&gt;&lt;span&gt;达人用户: 团长 团员 店主 mcn 可以入驻 ;其他互斥&lt;/span&gt;&lt;/div&gt;&lt;div&gt;&lt;span&gt;团长用户:达人 店主 可以入驻&amp;nbsp; ;其他互斥&lt;/span&gt;&lt;/div&gt;&lt;div&gt;&lt;span&gt;团员用户: 达人可以入驻；其他互斥&lt;/span&gt;&lt;/div&gt;" style="html=1;dashed=0;whitespace=wrap;fillColor=#FFF2CC;align=left;" parent="1" vertex="1">
          <mxGeometry x="500" y="602.5" width="540" height="157.5" as="geometry" />
        </mxCell>
        <mxCell id="7XowSsbJZNvmo9IsEqXJ-4" style="edgeStyle=orthogonalEdgeStyle;rounded=0;orthogonalLoop=1;jettySize=auto;html=1;exitX=1;exitY=0.5;exitDx=0;exitDy=0;entryX=0;entryY=1;entryDx=0;entryDy=0;" parent="1" source="7XowSsbJZNvmo9IsEqXJ-3" target="YGHudtXg5oLbGy2z0bL_-60" edge="1">
          <mxGeometry relative="1" as="geometry">
            <Array as="points">
              <mxPoint x="-90" y="720" />
              <mxPoint x="-90" y="570" />
              <mxPoint x="20" y="570" />
              <mxPoint x="20" y="530" />
              <mxPoint x="39" y="530" />
            </Array>
          </mxGeometry>
        </mxCell>
        <mxCell id="7XowSsbJZNvmo9IsEqXJ-5" style="edgeStyle=orthogonalEdgeStyle;rounded=0;orthogonalLoop=1;jettySize=auto;html=1;exitX=1;exitY=0.5;exitDx=0;exitDy=0;entryX=0;entryY=0.5;entryDx=0;entryDy=0;" parent="1" source="7XowSsbJZNvmo9IsEqXJ-3" target="YGHudtXg5oLbGy2z0bL_-62" edge="1">
          <mxGeometry relative="1" as="geometry">
            <Array as="points">
              <mxPoint x="-90" y="720" />
              <mxPoint x="-90" y="660" />
            </Array>
          </mxGeometry>
        </mxCell>
        <mxCell id="7XowSsbJZNvmo9IsEqXJ-3" value="入驻" style="ellipse;shape=doubleEllipse;html=1;dashed=0;whitespace=wrap;aspect=fixed;fillColor=#FFFFFF;" parent="1" vertex="1">
          <mxGeometry x="-530" y="690" width="60" height="60" as="geometry" />
        </mxCell>
        <mxCell id="BpVjMD0XwfIEJ_HBE0vz-5" style="edgeStyle=orthogonalEdgeStyle;rounded=0;orthogonalLoop=1;jettySize=auto;html=1;exitX=1;exitY=0.5;exitDx=0;exitDy=0;entryX=0;entryY=0.5;entryDx=0;entryDy=0;" parent="1" source="BpVjMD0XwfIEJ_HBE0vz-1" target="BpVjMD0XwfIEJ_HBE0vz-3" edge="1">
          <mxGeometry relative="1" as="geometry" />
        </mxCell>
        <mxCell id="BpVjMD0XwfIEJ_HBE0vz-18" value="推广品牌商商品" style="edgeLabel;html=1;align=center;verticalAlign=middle;resizable=0;points=[];" parent="BpVjMD0XwfIEJ_HBE0vz-5" vertex="1" connectable="0">
          <mxGeometry x="-0.025" relative="1" as="geometry">
            <mxPoint as="offset" />
          </mxGeometry>
        </mxCell>
        <mxCell id="BpVjMD0XwfIEJ_HBE0vz-19" style="edgeStyle=orthogonalEdgeStyle;rounded=0;orthogonalLoop=1;jettySize=auto;html=1;exitX=1;exitY=0.5;exitDx=0;exitDy=0;entryX=0;entryY=0.5;entryDx=0;entryDy=0;" parent="1" source="BpVjMD0XwfIEJ_HBE0vz-1" target="BpVjMD0XwfIEJ_HBE0vz-12" edge="1">
          <mxGeometry relative="1" as="geometry">
            <Array as="points">
              <mxPoint x="-230" y="1030" />
              <mxPoint x="-230" y="860" />
            </Array>
          </mxGeometry>
        </mxCell>
        <mxCell id="BpVjMD0XwfIEJ_HBE0vz-26" value="推广分销商商品" style="edgeLabel;html=1;align=center;verticalAlign=middle;resizable=0;points=[];" parent="BpVjMD0XwfIEJ_HBE0vz-19" vertex="1" connectable="0">
          <mxGeometry x="0.2686" relative="1" as="geometry">
            <mxPoint as="offset" />
          </mxGeometry>
        </mxCell>
        <mxCell id="BpVjMD0XwfIEJ_HBE0vz-20" style="edgeStyle=orthogonalEdgeStyle;rounded=0;orthogonalLoop=1;jettySize=auto;html=1;exitX=1;exitY=0.5;exitDx=0;exitDy=0;entryX=0;entryY=0.5;entryDx=0;entryDy=0;" parent="1" source="BpVjMD0XwfIEJ_HBE0vz-1" target="BpVjMD0XwfIEJ_HBE0vz-2" edge="1">
          <mxGeometry relative="1" as="geometry" />
        </mxCell>
        <mxCell id="BpVjMD0XwfIEJ_HBE0vz-21" style="edgeStyle=orthogonalEdgeStyle;rounded=0;orthogonalLoop=1;jettySize=auto;html=1;exitX=1;exitY=0.5;exitDx=0;exitDy=0;entryX=0;entryY=0.5;entryDx=0;entryDy=0;" parent="1" source="BpVjMD0XwfIEJ_HBE0vz-1" target="BpVjMD0XwfIEJ_HBE0vz-4" edge="1">
          <mxGeometry relative="1" as="geometry" />
        </mxCell>
        <mxCell id="BpVjMD0XwfIEJ_HBE0vz-1" value="品牌商&lt;br&gt;用户" style="shape=ellipse;html=1;dashed=0;whitespace=wrap;aspect=fixed;perimeter=ellipsePerimeter;fillColor=#E6D0DE;" parent="1" vertex="1">
          <mxGeometry x="-260" y="1000" width="60" height="60" as="geometry" />
        </mxCell>
        <mxCell id="BpVjMD0XwfIEJ_HBE0vz-22" style="edgeStyle=orthogonalEdgeStyle;rounded=0;orthogonalLoop=1;jettySize=auto;html=1;exitX=1;exitY=0.5;exitDx=0;exitDy=0;entryX=0;entryY=0.5;entryDx=0;entryDy=0;" parent="1" source="BpVjMD0XwfIEJ_HBE0vz-2" target="BpVjMD0XwfIEJ_HBE0vz-9" edge="1">
          <mxGeometry relative="1" as="geometry" />
        </mxCell>
        <mxCell id="BpVjMD0XwfIEJ_HBE0vz-23" value="推广自营商品" style="edgeLabel;html=1;align=center;verticalAlign=middle;resizable=0;points=[];" parent="BpVjMD0XwfIEJ_HBE0vz-22" vertex="1" connectable="0">
          <mxGeometry x="0.0571" y="4" relative="1" as="geometry">
            <mxPoint as="offset" />
          </mxGeometry>
        </mxCell>
        <mxCell id="BpVjMD0XwfIEJ_HBE0vz-2" value="店主&lt;br&gt;用户" style="shape=ellipse;html=1;dashed=0;whitespace=wrap;aspect=fixed;perimeter=ellipsePerimeter;fillColor=#E6D0DE;" parent="1" vertex="1">
          <mxGeometry x="-80" y="910" width="60" height="60" as="geometry" />
        </mxCell>
        <mxCell id="BpVjMD0XwfIEJ_HBE0vz-3" value="达人&lt;br&gt;用户" style="shape=ellipse;html=1;dashed=0;whitespace=wrap;aspect=fixed;perimeter=ellipsePerimeter;fillColor=#E6D0DE;" parent="1" vertex="1">
          <mxGeometry x="-80" y="1000" width="60" height="60" as="geometry" />
        </mxCell>
        <mxCell id="BpVjMD0XwfIEJ_HBE0vz-24" style="edgeStyle=orthogonalEdgeStyle;rounded=0;orthogonalLoop=1;jettySize=auto;html=1;exitX=1;exitY=0.5;exitDx=0;exitDy=0;entryX=0;entryY=0.5;entryDx=0;entryDy=0;" parent="1" source="BpVjMD0XwfIEJ_HBE0vz-4" target="BpVjMD0XwfIEJ_HBE0vz-8" edge="1">
          <mxGeometry relative="1" as="geometry" />
        </mxCell>
        <mxCell id="BpVjMD0XwfIEJ_HBE0vz-25" value="推广mcn自营商品" style="edgeLabel;html=1;align=center;verticalAlign=middle;resizable=0;points=[];" parent="BpVjMD0XwfIEJ_HBE0vz-24" vertex="1" connectable="0">
          <mxGeometry x="-0.3636" y="4" relative="1" as="geometry">
            <mxPoint as="offset" />
          </mxGeometry>
        </mxCell>
        <mxCell id="BpVjMD0XwfIEJ_HBE0vz-4" value="mcn&lt;br&gt;用户" style="shape=ellipse;html=1;dashed=0;whitespace=wrap;aspect=fixed;perimeter=ellipsePerimeter;fillColor=#E6D0DE;" parent="1" vertex="1">
          <mxGeometry x="-80" y="1090" width="60" height="60" as="geometry" />
        </mxCell>
        <mxCell id="BpVjMD0XwfIEJ_HBE0vz-8" value="mcn&lt;br&gt;销售" style="shape=ellipse;html=1;dashed=0;whitespace=wrap;aspect=fixed;perimeter=ellipsePerimeter;fillColor=#E6D0DE;" parent="1" vertex="1">
          <mxGeometry x="138.5" y="1090" width="60" height="60" as="geometry" />
        </mxCell>
        <mxCell id="BpVjMD0XwfIEJ_HBE0vz-9" value="推广员" style="shape=ellipse;html=1;dashed=0;whitespace=wrap;aspect=fixed;perimeter=ellipsePerimeter;fillColor=#E6D0DE;" parent="1" vertex="1">
          <mxGeometry x="130" y="910" width="60" height="60" as="geometry" />
        </mxCell>
        <mxCell id="BpVjMD0XwfIEJ_HBE0vz-14" style="edgeStyle=orthogonalEdgeStyle;rounded=0;orthogonalLoop=1;jettySize=auto;html=1;exitX=1;exitY=0.5;exitDx=0;exitDy=0;" parent="1" source="BpVjMD0XwfIEJ_HBE0vz-10" target="BpVjMD0XwfIEJ_HBE0vz-11" edge="1">
          <mxGeometry relative="1" as="geometry" />
        </mxCell>
        <mxCell id="BpVjMD0XwfIEJ_HBE0vz-15" value="推广团长商品" style="edgeLabel;html=1;align=center;verticalAlign=middle;resizable=0;points=[];" parent="BpVjMD0XwfIEJ_HBE0vz-14" vertex="1" connectable="0">
          <mxGeometry x="0.0444" y="1" relative="1" as="geometry">
            <mxPoint as="offset" />
          </mxGeometry>
        </mxCell>
        <mxCell id="BpVjMD0XwfIEJ_HBE0vz-10" value="团长" style="shape=ellipse;html=1;dashed=0;whitespace=wrap;aspect=fixed;perimeter=ellipsePerimeter;fillColor=#E6D0DE;" parent="1" vertex="1">
          <mxGeometry x="-260" y="1159" width="60" height="60" as="geometry" />
        </mxCell>
        <mxCell id="BpVjMD0XwfIEJ_HBE0vz-11" value="团员" style="shape=ellipse;html=1;dashed=0;whitespace=wrap;aspect=fixed;perimeter=ellipsePerimeter;fillColor=#E6D0DE;" parent="1" vertex="1">
          <mxGeometry x="-20" y="1159" width="60" height="60" as="geometry" />
        </mxCell>
        <mxCell id="BpVjMD0XwfIEJ_HBE0vz-12" value="分销商" style="shape=ellipse;html=1;dashed=0;whitespace=wrap;aspect=fixed;perimeter=ellipsePerimeter;fillColor=#E6D0DE;" parent="1" vertex="1">
          <mxGeometry x="-80" y="830" width="60" height="60" as="geometry" />
        </mxCell>
        <mxCell id="CJKa5TdxEMTpn0F3WpRk-1" value="" style="verticalLabelPosition=bottom;verticalAlign=top;html=1;shadow=0;dashed=0;strokeWidth=1;shape=mxgraph.android.phone2;strokeColor=#c0c0c0;" vertex="1" parent="1">
          <mxGeometry x="290" y="850" width="220" height="400" as="geometry" />
        </mxCell>
        <mxCell id="CJKa5TdxEMTpn0F3WpRk-8" value="卖家" style="html=1;dashed=0;whitespace=wrap;fillColor=#D5E8D4;" vertex="1" parent="1">
          <mxGeometry x="211.5" y="1130" width="28.5" height="130" as="geometry" />
        </mxCell>
        <mxCell id="CJKa5TdxEMTpn0F3WpRk-9" value="下单" style="html=1;dashed=0;whitespace=wrap;fillColor=#FFBB33;" vertex="1" parent="1">
          <mxGeometry x="310" y="1177" width="96" height="31" as="geometry" />
        </mxCell>
        <mxCell id="CJKa5TdxEMTpn0F3WpRk-10" value="支付" style="html=1;dashed=0;whitespace=wrap;fillColor=#FF8800;" vertex="1" parent="1">
          <mxGeometry x="404" y="1177" width="96" height="31" as="geometry" />
        </mxCell>
        <mxCell id="CJKa5TdxEMTpn0F3WpRk-11" value="" style="aspect=fixed;perimeter=ellipsePerimeter;html=1;align=center;shadow=0;dashed=0;spacingTop=3;image;image=img/lib/active_directory/router.svg;fillColor=#FFFFFF;" vertex="1" parent="1">
          <mxGeometry x="310" y="940" width="92.1" height="70" as="geometry" />
        </mxCell>
        <mxCell id="CJKa5TdxEMTpn0F3WpRk-12" value="" style="aspect=fixed;perimeter=ellipsePerimeter;html=1;align=center;shadow=0;dashed=0;spacingTop=3;image;image=img/lib/active_directory/router.svg;fillColor=#FFFFFF;" vertex="1" parent="1">
          <mxGeometry x="402.1" y="940" width="92.1" height="70" as="geometry" />
        </mxCell>
        <mxCell id="CJKa5TdxEMTpn0F3WpRk-13" value="" style="aspect=fixed;perimeter=ellipsePerimeter;html=1;align=center;shadow=0;dashed=0;spacingTop=3;image;image=img/lib/active_directory/router.svg;fillColor=#FFFFFF;" vertex="1" parent="1">
          <mxGeometry x="310" y="1020" width="92.1" height="70" as="geometry" />
        </mxCell>
        <mxCell id="CJKa5TdxEMTpn0F3WpRk-14" value="" style="aspect=fixed;perimeter=ellipsePerimeter;html=1;align=center;shadow=0;dashed=0;spacingTop=3;image;image=img/lib/active_directory/router.svg;fillColor=#FFFFFF;" vertex="1" parent="1">
          <mxGeometry x="404" y="1020" width="92.1" height="70" as="geometry" />
        </mxCell>
        <mxCell id="CJKa5TdxEMTpn0F3WpRk-22" value="" style="aspect=fixed;perimeter=ellipsePerimeter;html=1;align=center;shadow=0;dashed=0;spacingTop=3;image;image=img/lib/active_directory/router.svg;fillColor=#FFFFFF;" vertex="1" parent="1">
          <mxGeometry x="310" y="1102" width="92.1" height="70" as="geometry" />
        </mxCell>
        <mxCell id="CJKa5TdxEMTpn0F3WpRk-23" value="" style="aspect=fixed;perimeter=ellipsePerimeter;html=1;align=center;shadow=0;dashed=0;spacingTop=3;image;image=img/lib/active_directory/router.svg;fillColor=#FFFFFF;" vertex="1" parent="1">
          <mxGeometry x="404" y="1102" width="92.1" height="70" as="geometry" />
        </mxCell>
        <mxCell id="CJKa5TdxEMTpn0F3WpRk-25" value="搜索" style="html=1;dashed=0;whitespace=wrap;shape=mxgraph.dfd.dataStoreID;align=left;spacingLeft=3;points=[[0,0],[0.5,0],[1,0],[0,0.5],[1,0.5],[0,1],[0.5,1],[1,1]];fillColor=#FFFF66;" vertex="1" parent="1">
          <mxGeometry x="320" y="900" width="160" height="30" as="geometry" />
        </mxCell>
        <mxCell id="CJKa5TdxEMTpn0F3WpRk-26" value="&lt;b&gt;买家&lt;/b&gt;" style="text;html=1;align=center;verticalAlign=middle;resizable=0;points=[];autosize=1;" vertex="1" parent="1">
          <mxGeometry x="380" y="860" width="40" height="20" as="geometry" />
        </mxCell>
      </root>
    </mxGraphModel>
  </diagram>
</mxfile>
